<svg width="40" height="40" viewBox="0 0 40 40" fill="none" xmlns="http://www.w3.org/2000/svg">
<path d="M35.2896 11.3533C36.1707 10.4724 36.6659 9.27745 36.666 8.03143C36.6662 6.7854 36.1714 5.59035 35.2904 4.70917C34.4094 3.82799 33.2145 3.33286 31.9685 3.3327C30.7225 3.33255 29.5274 3.82738 28.6462 4.70834L6.4029 26.9567C6.01593 27.3425 5.72975 27.8176 5.56957 28.34L3.3679 35.5933C3.32482 35.7375 3.32157 35.8906 3.35848 36.0364C3.3954 36.1823 3.4711 36.3154 3.57756 36.4217C3.68402 36.528 3.81727 36.6035 3.96316 36.6401C4.10906 36.6768 4.26216 36.6733 4.40623 36.63L11.6612 34.43C12.1832 34.2713 12.6582 33.9868 13.0446 33.6017L35.2896 11.3533Z" stroke="#2C5B8C" stroke-width="4" stroke-linecap="round" stroke-linejoin="round"/>
<path d="M25 8.33333L31.6667 15" stroke="#2C5B8C" stroke-width="4" stroke-linecap="round" stroke-linejoin="round"/>
</svg>
